<svg width="177" height="35" viewBox="0 0 177 35" fill="none" xmlns="http://www.w3.org/2000/svg">
<g clip-path="url(#clip0_2418_5645)">
<path d="M18.4922 28.9199H23.081V29.5228H21.1242V34.9485H20.4405V29.5228H18.4922V28.9199Z" fill="#22326E"/>
<path d="M30.6168 28.9199C31.3688 28.9199 31.9499 29.0978 32.3601 29.4509C32.7702 29.804 32.9753 30.2978 32.9753 30.9351C32.9753 31.5724 32.7702 32.1064 32.3601 32.471C31.9499 32.8355 31.3688 33.0164 30.6168 33.0164H29.0274V34.9455H28.3438V28.917H30.6168V28.9199ZM30.6168 32.425C31.158 32.425 31.5796 32.2987 31.8758 32.049C32.1749 31.7992 32.3259 31.4318 32.3259 30.9523C32.3259 30.4729 32.1749 30.1256 31.8758 29.8844C31.5767 29.6433 31.158 29.5227 30.6168 29.5227H29.0274V32.425H30.6168ZM30.8219 32.7351H31.5141L33.0352 34.9484H32.2575L30.8219 32.7351Z" fill="#22326E"/>
<path d="M40.6044 28.9199H41.3051L43.9798 34.9485H43.2449L40.9377 29.6261L38.6475 34.9485H37.9297L40.6044 28.9199ZM39.1089 32.7868H42.7407V33.381H39.1089V32.7868Z" fill="#22326E"/>
<path d="M47.9688 28.9199H48.7037L50.7631 34.2164L52.8311 28.9199H53.5489L51.1049 34.9485H50.3956L47.9688 28.9199Z" fill="#22326E"/>
<path d="M58.7734 28.9199H62.8325V29.5228H59.4571V31.5897H62.4736V32.1839H59.4571V34.3542H62.9436V34.9485H58.7734V28.9199Z" fill="#22326E"/>
<path d="M68.6094 28.9199H69.293V34.3542H71.9164V34.9485H68.6094V28.9199Z" fill="#22326E"/>
<path d="M87.9824 30.2118C87.7546 29.9764 87.484 29.7927 87.1763 29.6549C86.8658 29.5199 86.5468 29.451 86.2135 29.451C85.8803 29.451 85.5612 29.5142 85.265 29.6405C84.9688 29.7668 84.7096 29.9448 84.4874 30.1716C84.2652 30.3984 84.0914 30.6625 83.9661 30.9582C83.8408 31.2567 83.7781 31.5783 83.7781 31.9227C83.7781 32.2672 83.8408 32.5801 83.9661 32.8787C84.0914 33.1773 84.2652 33.4385 84.4874 33.6624C84.7096 33.8863 84.9688 34.0643 85.265 34.1935C85.5612 34.3227 85.8774 34.3858 86.2135 34.3858C86.5497 34.3858 86.863 34.3227 87.1678 34.1935C87.4726 34.0643 87.7432 33.8863 87.9824 33.6538L88.4012 34.0844C88.2075 34.2681 87.9881 34.4289 87.7489 34.5667C87.5067 34.7045 87.2532 34.8107 86.9912 34.8853C86.7291 34.96 86.4585 34.9973 86.1794 34.9973C85.7464 34.9973 85.3448 34.9198 84.9716 34.759C84.5985 34.6011 84.2709 34.383 83.9889 34.1016C83.7069 33.8203 83.4847 33.493 83.3252 33.1198C83.1657 32.7466 83.0859 32.3476 83.0859 31.9227C83.0859 31.4979 83.1657 31.1017 83.3252 30.7343C83.4847 30.3668 83.7069 30.0424 83.9918 29.7611C84.2766 29.4797 84.607 29.2616 84.983 29.1066C85.359 28.9515 85.7663 28.874 86.205 28.874C86.4784 28.874 86.7462 28.9085 87.0083 28.9774C87.2703 29.0463 87.5181 29.1439 87.7517 29.2759C87.9853 29.4051 88.1989 29.563 88.3926 29.7439L87.9824 30.2089V30.2118Z" fill="#22326E"/>
<path d="M96.3315 28.877C96.7644 28.877 97.1689 28.9545 97.5506 29.1095C97.9294 29.2645 98.2599 29.4827 98.5475 29.764C98.8324 30.0453 99.0546 30.3697 99.2169 30.7372C99.3793 31.1046 99.4619 31.5008 99.4619 31.9257C99.4619 32.3505 99.3793 32.7496 99.2169 33.1228C99.0546 33.496 98.8295 33.8232 98.5475 34.1046C98.2627 34.3859 97.9294 34.6069 97.5506 34.762C97.1717 34.9199 96.7644 35.0002 96.3315 35.0002C95.8985 35.0002 95.4826 34.9227 95.1066 34.762C94.7278 34.6041 94.3945 34.3859 94.1097 34.1046C93.8248 33.8232 93.5998 33.496 93.4374 33.1228C93.2751 32.7496 93.1953 32.3505 93.1953 31.9257C93.1953 31.5008 93.2779 31.1018 93.4374 30.7314C93.5998 30.3611 93.8248 30.0367 94.1097 29.7583C94.3945 29.4798 94.7249 29.2645 95.1066 29.1095C95.4855 28.9545 95.8928 28.877 96.3315 28.877ZM96.3315 29.4626C95.9953 29.4626 95.6792 29.5257 95.3858 29.6521C95.0924 29.7784 94.8332 29.9564 94.6081 30.1831C94.3831 30.4099 94.2065 30.674 94.0783 30.9726C93.9501 31.2711 93.8875 31.5898 93.8875 31.9285C93.8875 32.2673 93.953 32.5946 94.0783 32.8931C94.2065 33.1917 94.386 33.4558 94.6138 33.6854C94.8417 33.9151 95.1009 34.0931 95.3972 34.2194C95.6934 34.3457 96.001 34.4089 96.3343 34.4089C96.6676 34.4089 96.9866 34.3457 97.28 34.2194C97.5734 34.0931 97.8297 33.9151 98.0519 33.6854C98.2741 33.4558 98.4479 33.1917 98.5732 32.8931C98.6985 32.5946 98.7612 32.273 98.7612 31.9285C98.7612 31.5841 98.6985 31.2711 98.5732 30.9726C98.4479 30.674 98.2741 30.4128 98.0519 30.1831C97.8297 29.9564 97.5705 29.7812 97.28 29.6521C96.9866 29.5257 96.6704 29.4626 96.3343 29.4626H96.3315Z" fill="#22326E"/>
<path d="M104.977 28.9199H105.805L108.087 33.3638L110.343 28.9199H111.18V34.9485H110.54L110.531 29.8587L108.275 34.3025H107.882L105.609 29.8587V34.9485H104.977V28.9199Z" fill="#22326E"/>
<path d="M119.513 28.9199C120.254 28.9199 120.826 29.0978 121.234 29.4509C121.641 29.804 121.843 30.2978 121.843 30.9351C121.843 31.5724 121.641 32.1064 121.234 32.471C120.826 32.8355 120.251 33.0164 119.513 33.0164H117.65L117.949 32.715V34.9455H117.266V28.917H119.513V28.9199ZM119.487 32.425C120.029 32.425 120.447 32.2987 120.744 32.049C121.04 31.7992 121.188 31.4318 121.188 30.9523C121.188 30.4729 121.04 30.1256 120.744 29.8844C120.447 29.6433 120.029 29.5227 119.487 29.5227H117.65L117.949 29.2213V32.7265L117.65 32.425H119.487Z" fill="#22326E"/>
<path d="M128.737 28.9199H129.438L132.113 34.9485H131.378L129.07 29.6261L126.78 34.9485H126.062L128.737 28.9199ZM127.242 32.7868H130.874V33.381H127.242V32.7868Z" fill="#22326E"/>
<path d="M137.336 28.9199H138.045L141.814 34.1389L141.634 34.1992V28.9199H142.309V34.9485H141.609L137.84 29.7381L138.02 29.6778V34.9485H137.336V28.9199Z" fill="#22326E"/>
<path d="M147.539 28.9199H148.24L150.18 32.1151L152.094 28.9199H152.794L150.231 33.3035H150.12L147.539 28.9199ZM149.846 32.4682H150.521V34.9485H149.846V32.4682Z" fill="#22326E"/>
<path d="M50.2031 1.98633H51.8438V8.58041H60.4974V1.98633H62.1381V16.4548H60.4974V10.0072H51.8438V16.4548H50.2031V1.98633Z" fill="#22326E"/>
<path d="M100.619 1.98633C102.425 1.98633 103.818 2.4112 104.803 3.25806C105.789 4.10493 106.279 5.29341 106.279 6.82352C106.279 8.35362 105.786 9.63684 104.803 10.5124C103.818 11.388 102.425 11.8243 100.619 11.8243H96.8048V16.4548H95.1641V1.98633H100.619ZM100.619 10.3976C101.918 10.3976 102.926 10.099 103.644 9.49904C104.362 8.89906 104.721 8.02061 104.721 6.86371C104.721 5.7068 104.362 4.88003 103.644 4.30014C102.926 3.72025 101.918 3.43318 100.619 3.43318H96.8048V10.3976H100.619ZM101.112 11.144H102.772L106.424 16.4548H104.558L101.112 11.144Z" fill="#22326E"/>
<path d="M114.281 1.98633H115.922V16.4548H114.281V1.98633Z" fill="#22326E"/>
<path d="M124.104 1.98633H135.506V3.20639L125.989 15.0281H135.589V16.4548H123.836V15.2348L133.353 3.43318H124.104V1.98633Z" fill="#22326E"/>
<path d="M149.697 1.88281C150.737 1.88281 151.711 2.06941 152.62 2.43974C153.529 2.81293 154.326 3.3354 155.01 4.01003C155.693 4.68465 156.229 5.46262 156.619 6.34681C157.009 7.22812 157.203 8.17833 157.203 9.20032C157.203 10.2223 157.009 11.1783 156.619 12.0739C156.229 12.9696 155.693 13.7562 155.01 14.4308C154.326 15.1054 153.529 15.6336 152.62 16.0126C151.711 16.3915 150.737 16.581 149.697 16.581C148.658 16.581 147.664 16.3915 146.755 16.0126C145.846 15.6336 145.049 15.1054 144.365 14.4308C143.682 13.7562 143.146 12.9696 142.756 12.0739C142.366 11.1783 142.172 10.2194 142.172 9.20032C142.172 8.1812 142.366 7.22525 142.756 6.33819C143.146 5.45114 143.682 4.6703 144.365 4.00141C145.049 3.33253 145.846 2.81293 146.755 2.43974C147.664 2.06654 148.646 1.88281 149.697 1.88281ZM149.697 3.28947C148.891 3.28947 148.137 3.44162 147.43 3.74305C146.727 4.04735 146.103 4.46934 145.564 5.01478C145.023 5.56022 144.602 6.18891 144.294 6.9066C143.986 7.62428 143.833 8.3879 143.833 9.20032C143.833 10.0127 143.986 10.7993 144.294 11.5141C144.602 12.2318 145.029 12.8662 145.576 13.4146C146.123 13.9657 146.749 14.3935 147.453 14.6949C148.156 14.9992 148.906 15.1485 149.697 15.1485C150.489 15.1485 151.258 14.9963 151.965 14.6949C152.668 14.3935 153.287 13.9657 153.822 13.4146C154.355 12.8634 154.773 12.2289 155.073 11.5141C155.372 10.7964 155.523 10.0271 155.523 9.20032C155.523 8.37354 155.372 7.62141 155.073 6.9066C154.771 6.18891 154.355 5.56022 153.822 5.01478C153.289 4.46934 152.671 4.04735 151.965 3.74305C151.261 3.44162 150.506 3.28947 149.697 3.28947Z" fill="#22326E"/>
<path d="M165.062 1.98633H166.766L175.81 14.5113L175.38 14.6549V1.98633H177V16.4548H175.32L166.276 3.94991L166.706 3.80637V16.4548H165.065V1.98633H165.062Z" fill="#22326E"/>
<path d="M69.8413 10.9455H69.8359C69.8359 10.9455 69.8413 10.9429 69.8413 10.9455Z" fill="#FFB838"/>
<path d="M92.1881 15.8342C92.1795 16.0265 92.1653 16.2189 92.1453 16.4084H87.0836V16.1213C87.0836 11.5654 83.4034 7.8593 78.8829 7.8593C74.3624 7.8593 70.6851 11.5654 70.6851 16.1213V16.4084H65.199C65.179 16.2189 65.1648 16.0265 65.1562 15.8342H70.1183C70.1353 15.3261 70.1952 14.8294 70.2949 14.3472C70.3319 14.1577 70.3746 13.9711 70.4259 13.7874C70.5797 13.2161 70.7905 12.6707 71.0525 12.1511C71.138 11.9788 71.2291 11.8094 71.326 11.6458C71.6222 11.1377 71.9669 10.664 72.3571 10.2305C72.4796 10.087 72.6106 9.9492 72.7474 9.81427C73.1632 9.40376 73.619 9.0363 74.1061 8.71478C74.2656 8.61144 74.4251 8.51096 74.5932 8.4191C75.0973 8.13202 75.6329 7.89375 76.1912 7.7129C76.3706 7.65261 76.5529 7.60094 76.7381 7.55213C77.2907 7.41147 77.866 7.32535 78.4557 7.29664C78.5981 7.28803 78.7405 7.28516 78.8829 7.28516C78.9314 7.28516 78.9798 7.28516 79.0254 7.28803C79.6178 7.29664 80.1989 7.36554 80.7572 7.48898C80.9452 7.52917 81.1275 7.57797 81.3098 7.62964C81.8738 7.79328 82.415 8.01432 82.9277 8.28417C83.0958 8.37029 83.261 8.46503 83.4234 8.5655C83.9219 8.8698 84.389 9.22577 84.8163 9.62193C84.9558 9.75112 85.0926 9.88317 85.2236 10.0238C85.6224 10.4458 85.9813 10.908 86.2946 11.4018C86.3943 11.5654 86.494 11.7319 86.5823 11.9013C86.8615 12.4094 87.0893 12.9491 87.2602 13.5147C87.3172 13.6955 87.3685 13.8821 87.4112 14.0687C87.5479 14.6371 87.6277 15.2285 87.6476 15.8342H92.1881Z" fill="#FFB838"/>
<path d="M90.0252 13.3567L87.4132 14.0715L87.0856 14.1605L86.9375 13.6065L87.2622 13.5175L89.8942 12.7998C89.9426 12.9835 89.9853 13.1701 90.0252 13.3567Z" fill="#FFB838"/>
<path d="M90.9128 9.35853L86.586 11.902L86.2955 12.0714L86.0078 11.5747L86.2984 11.4025L90.6565 8.8418C90.7448 9.01117 90.8302 9.18341 90.9128 9.35853Z" fill="#FFB838"/>
<path d="M87.2777 7.9544L85.2268 10.0242L84.9876 10.2653L84.5859 9.8577L86.8846 7.54102C87.0185 7.67594 87.1495 7.81374 87.2777 7.9544Z" fill="#FFB838"/>
<path d="M86.1069 3.78861L83.4265 8.56552L83.2613 8.8612L82.7656 8.577L82.9308 8.28418L85.6255 3.48145C85.7907 3.57905 85.9474 3.6824 86.1069 3.78861Z" fill="#FFB838"/>
<path d="M82.0676 4.62475L81.3071 7.63041L81.2216 7.96341L80.6719 7.82275L80.7545 7.48974L81.5179 4.46973C81.703 4.51566 81.8853 4.56733 82.0676 4.62475Z" fill="#FFB838"/>
<path d="M79.0323 7.62996L78.4626 7.6357L78.4569 7.29696L78.3828 1.55262C78.4797 1.54687 78.5765 1.54688 78.6734 1.54688C78.7702 1.54688 78.8585 1.54687 78.9525 1.55262L79.0266 7.28834L79.0323 7.62996Z" fill="#FFB838"/>
<path d="M76.8299 7.88842L76.2802 8.04057L76.1919 7.7133L75.3516 4.60143C75.531 4.54401 75.7162 4.49521 75.9013 4.45215L76.7388 7.55254L76.8299 7.88842Z" fill="#FFB838"/>
<path d="M74.768 8.71263L74.2781 9.00545L74.1072 8.7155L71.1875 3.82377C71.3442 3.71755 71.5065 3.61421 71.6689 3.5166L74.5942 8.41982L74.768 8.71263Z" fill="#FFB838"/>
<path d="M72.9886 10.0533L72.5927 10.4638L72.3562 10.2312L70.0547 7.97485C70.1829 7.83131 70.3139 7.69352 70.4478 7.55859L72.7465 9.81499L72.9886 10.0533Z" fill="#FFB838"/>
<path d="M71.6191 11.8101L71.3456 12.3154L71.0494 12.1517L66.3438 9.55085C66.4235 9.37574 66.5061 9.20349 66.5916 9.03125L71.3228 11.6465L71.6191 11.8101Z" fill="#FFB838"/>
<path d="M71.6191 11.8101L71.3456 12.3154L71.0494 12.1517L66.3438 9.55085C66.4235 9.37574 66.5061 9.20349 66.5916 9.03125L71.3228 11.6465L71.6191 11.8101Z" fill="#FFB838"/>
<path d="M70.7599 13.8705L70.6232 14.4275L70.2956 14.3471L67.2734 13.5949C67.3105 13.4055 67.3503 13.2189 67.3959 13.0352L70.4267 13.7873L70.7599 13.8705Z" fill="#FFB838"/>
<path d="M78.8859 9.0166C74.992 9.0166 71.8359 12.1974 71.8359 16.1217H85.9358C85.9358 12.1974 82.7797 9.0166 78.8859 9.0166Z" fill="#FFB838"/>
<path d="M85.7934 17.4424H71.8359V18.0165H85.7934V17.4424Z" fill="#72DAF5"/>
<path d="M83.1508 19.165H74.1953V19.7392H83.1508V19.165Z" fill="#72DAF5"/>
<path d="M80.6989 20.8877H76.6484V21.4618H80.6989V20.8877Z" fill="#72DAF5"/>
<path d="M7.6481 0.0400391C8.72766 0.0400391 9.73316 0.226637 10.6618 0.596962C11.5904 0.970157 12.4022 1.49263 13.0915 2.16725C13.7808 2.84188 14.322 3.62559 14.7123 4.51264C15.1025 5.40257 15.2962 6.37001 15.2962 7.41783C15.2962 8.46565 15.1025 9.4216 14.7123 10.3316C14.322 11.2416 13.7837 12.034 13.0915 12.7086C12.4022 13.3832 11.5904 13.9114 10.6618 14.2904C9.73316 14.6693 8.72766 14.8588 7.6481 14.8588C6.56853 14.8588 5.56588 14.6693 4.64298 14.2904C3.72008 13.9114 2.91112 13.3832 2.21325 12.7086C1.51538 12.034 0.971322 11.2445 0.583933 10.3431C0.193695 9.4417 0 8.46565 0 7.41783C0 6.37001 0.193695 5.3997 0.583933 4.50403C0.974171 3.60836 1.51823 2.82752 2.21325 2.15864C2.91112 1.48976 3.72008 0.970157 4.64298 0.596962C5.56588 0.226637 6.56568 0.0400391 7.6481 0.0400391ZM7.68797 2.37682C7.01859 2.37682 6.38908 2.50313 5.8023 2.75862C5.21552 3.01412 4.69425 3.37296 4.24419 3.83228C3.79414 4.29447 3.44093 4.82843 3.18742 5.43415C2.93391 6.03988 2.80857 6.70301 2.80857 7.41783C2.80857 8.13264 2.9396 8.79865 3.19881 9.41299C3.45802 10.0273 3.81408 10.567 4.26413 11.035C4.71419 11.5029 5.23546 11.8675 5.82224 12.1316C6.40902 12.3928 7.03283 12.5249 7.68797 12.5249C8.34312 12.5249 8.96123 12.3928 9.54517 12.1316C10.1262 11.8703 10.6361 11.5058 11.0719 11.035C11.5106 10.567 11.8553 10.0245 12.1088 9.41299C12.3623 8.79865 12.4876 8.13551 12.4876 7.41783C12.4876 6.70014 12.3623 6.03988 12.1088 5.43415C11.8553 4.82843 11.5106 4.29447 11.0719 3.83228C10.6333 3.37009 10.1262 3.01412 9.54517 2.75862C8.96408 2.50313 8.34597 2.37682 7.68797 2.37682Z" fill="#22326E"/>
<path d="M20.0101 12.0078C20.4203 12.0078 20.7592 12.1399 21.0241 12.4011C21.2919 12.6623 21.4229 13.0011 21.4229 13.4145C21.4229 13.8279 21.289 14.1896 21.0241 14.4594C20.7564 14.7293 20.4203 14.8613 20.0101 14.8613C19.5999 14.8613 19.2809 14.7264 19.016 14.4594C18.7482 14.1896 18.6172 13.8422 18.6172 13.4145C18.6172 12.9867 18.7511 12.6623 19.016 12.4011C19.2837 12.1399 19.6141 12.0078 20.0101 12.0078Z" fill="#22326E"/>
<path d="M35.0749 3.78369C34.5679 3.46791 34.0523 3.2038 33.5253 2.99711C32.9984 2.79041 32.5028 2.64401 32.0385 2.55214C31.5742 2.46315 31.1497 2.41722 30.768 2.41722C30.1243 2.41722 29.6087 2.54066 29.2185 2.79041C28.8283 3.0373 28.6346 3.40475 28.6346 3.88703C28.6346 4.32913 28.7741 4.6851 29.0561 4.96069C29.3353 5.23628 29.7056 5.46307 30.1642 5.64392C30.6228 5.82191 31.1241 5.99415 31.671 6.16066C32.2179 6.32716 32.7648 6.50802 33.3117 6.70897C33.8586 6.90992 34.3599 7.16828 34.8185 7.48406C35.2771 7.79985 35.6417 8.20749 35.9152 8.70413C36.1887 9.20076 36.3254 9.82084 36.3254 10.5644C36.3254 11.46 36.0861 12.2236 35.6076 12.8581C35.129 13.4925 34.4767 13.9805 33.6478 14.325C32.8189 14.6695 31.8818 14.8418 30.8279 14.8418C30.0616 14.8418 29.3125 14.7413 28.5833 14.5432C27.8512 14.3423 27.1619 14.0724 26.5125 13.7279C25.863 13.3834 25.2791 12.9844 24.7578 12.5279L25.9057 10.2744C26.3985 10.728 26.9312 11.1184 27.5066 11.4428C28.082 11.7672 28.6573 12.0141 29.2384 12.1863C29.8195 12.3586 30.3636 12.4447 30.8677 12.4447C31.6482 12.4447 32.2521 12.2925 32.6822 11.9911C33.1123 11.6868 33.3288 11.262 33.3288 10.7108C33.3288 10.2572 33.1892 9.89261 32.9072 9.61415C32.6281 9.33856 32.2606 9.1089 31.8106 8.9223C31.3605 8.73571 30.8563 8.57207 30.3038 8.42567C29.7512 8.28213 29.1985 8.10989 28.6516 7.90893C28.1047 7.70798 27.6034 7.45536 27.1448 7.14532C26.6862 6.83528 26.3188 6.43912 26.0368 5.95683C25.7576 5.47455 25.6152 4.86021 25.6152 4.11669C25.6152 3.27557 25.8402 2.54927 26.2931 1.93493C26.7432 1.3206 27.3698 0.846926 28.1703 0.508179C28.9707 0.169432 29.9107 0.00292969 30.9902 0.00292969C31.9473 0.00292969 32.8816 0.140725 33.7903 0.416316C34.6989 0.691906 35.4965 1.05649 36.1801 1.51294L35.0721 3.78656L35.0749 3.78369Z" fill="#22326E"/>
<path d="M40.8616 12.0078C41.2718 12.0078 41.6108 12.1399 41.8757 12.4011C42.1434 12.6623 42.2745 13.0011 42.2745 13.4145C42.2745 13.8279 42.1406 14.1896 41.8757 14.4594C41.6079 14.7293 41.2718 14.8613 40.8616 14.8613C40.4515 14.8613 40.1324 14.7264 39.8675 14.4594C39.5998 14.1896 39.4688 13.8422 39.4688 13.4145C39.4688 12.9867 39.6026 12.6623 39.8675 12.4011C40.1353 12.1399 40.4657 12.0078 40.8616 12.0078Z" fill="#22326E"/>
</g>
<defs>
<clipPath id="clip0_2418_5645">
<rect width="177" height="35" fill="white"/>
</clipPath>
</defs>
</svg>
